<svg width="47" height="46" viewBox="0 0 47 46" fill="none" xmlns="http://www.w3.org/2000/svg">
<g clip-path="url(#clip0_989_1501)">
<path d="M21.1358 0.960549L0.964691 21.0479C-0.119741 22.1278 -0.119741 23.8721 0.964691 24.952L21.1358 45.0393C22.2202 46.1193 23.9718 46.1193 25.0562 45.0393L33.5137 36.617C34.4848 35.6499 34.4848 34.0818 33.5137 33.1146C32.5425 32.1475 30.9679 32.1475 29.9967 33.1146L23.5851 39.4995C23.3152 39.7683 22.9056 39.7683 22.6357 39.4995L6.5276 23.4584C6.25769 23.1896 6.25769 22.7816 6.5276 22.5128L22.6357 6.47166C22.9056 6.20287 23.3152 6.20287 23.5851 6.47166L29.9967 12.8566C30.9679 13.8237 32.5425 13.8237 33.5137 12.8566C34.4848 11.8894 34.4848 10.3213 33.5137 9.35419L25.0571 0.932769C23.9682 -0.123789 22.2161 -0.115236 21.1358 0.960549Z" fill="url(#paint0_linear_989_1501)"/>
<path d="M21.1358 0.960549L0.964691 21.0479C-0.119741 22.1278 -0.119741 23.8721 0.964691 24.952L21.1358 45.0393C22.2202 46.1193 23.9718 46.1193 25.0562 45.0393L33.5137 36.617C34.4848 35.6499 34.4848 34.0818 33.5137 33.1146C32.5425 32.1475 30.9679 32.1475 29.9967 33.1146L23.5851 39.4995C23.3152 39.7683 22.9056 39.7683 22.6357 39.4995L6.5276 23.4584C6.25769 23.1896 6.25769 22.7816 6.5276 22.5128L22.6357 6.47166C23.3077 5.8942 24.4043 4.72457 26.0146 4.45101C27.2114 4.24771 28.5197 4.69517 29.9397 5.7934C28.9904 4.84799 27.3629 3.22777 25.0571 0.932769C23.9682 -0.123789 22.2161 -0.115236 21.1358 0.960549Z" fill="url(#paint1_linear_989_1501)"/>
<path d="M35.4659 31.2464C36.4371 32.2135 38.0117 32.2135 38.9829 31.2464L45.2215 25.0336C46.3059 23.9537 46.3059 22.2094 45.2216 21.1296L38.9286 14.885C37.9551 13.919 36.38 13.9204 35.4083 14.8881C34.4371 15.8552 34.4371 17.4233 35.4083 18.3905L39.6586 22.6232C39.9285 22.8919 39.9285 23.2999 39.6586 23.5687L35.4659 27.744C34.4947 28.7111 34.4947 30.2792 35.4659 31.2464Z" fill="url(#paint2_linear_989_1501)"/>
<path d="M23.1968 28.5239C26.2046 28.5239 28.643 26.0957 28.643 23.1003C28.643 20.105 26.2046 17.6768 23.1968 17.6768C20.1889 17.6768 17.7506 20.105 17.7506 23.1003C17.7506 26.0957 20.1889 28.5239 23.1968 28.5239Z" fill="url(#paint3_linear_989_1501)"/>
</g>
<defs>
<linearGradient id="paint0_linear_989_1501" x1="21.3225" y1="0.146974" x2="40.4561" y2="11.8706" gradientUnits="userSpaceOnUse">
<stop stop-color="#4285EB"/>
<stop offset="1" stop-color="#2EC7FF"/>
</linearGradient>
<linearGradient id="paint1_linear_989_1501" x1="23.8935" y1="0.146972" x2="14.4868" y2="48.9258" gradientUnits="userSpaceOnUse">
<stop stop-color="#29CDFF"/>
<stop offset="0.378601" stop-color="#148EFF"/>
<stop offset="1" stop-color="#0A60FF"/>
</linearGradient>
<linearGradient id="paint2_linear_989_1501" x1="42.5933" y1="11.8506" x2="30.333" y2="31.0888" gradientUnits="userSpaceOnUse">
<stop stop-color="#FA816E"/>
<stop offset="0.414726" stop-color="#F74A5C"/>
<stop offset="1" stop-color="#F51D2C"/>
</linearGradient>
<linearGradient id="paint3_linear_989_1501" x1="25.1713" y1="13.8053" x2="21.0982" y2="30.1528" gradientUnits="userSpaceOnUse">
<stop stop-color="#FA8E7D"/>
<stop offset="0.512635" stop-color="#F74A5C"/>
<stop offset="1" stop-color="#F51D2C"/>
</linearGradient>
<clipPath id="clip0_989_1501">
<rect width="46.1538" height="46" fill="white"/>
</clipPath>
</defs>
</svg>
