<svg width="20" height="20" viewBox="0 0 20 20" fill="none" xmlns="http://www.w3.org/2000/svg">
<path d="M18.2143 2.67868H14.4643V1.2501C14.4643 1.15189 14.3839 1.07153 14.2857 1.07153H13.0357C12.9375 1.07153 12.8571 1.15189 12.8571 1.2501V2.67868H7.14284V1.2501C7.14284 1.15189 7.06248 1.07153 6.96427 1.07153H5.71427C5.61605 1.07153 5.5357 1.15189 5.5357 1.2501V2.67868H1.7857C1.39061 2.67868 1.07141 2.99787 1.07141 3.39296V18.2144C1.07141 18.6095 1.39061 18.9287 1.7857 18.9287H18.2143C18.6094 18.9287 18.9286 18.6095 18.9286 18.2144V3.39296C18.9286 2.99787 18.6094 2.67868 18.2143 2.67868ZM17.3214 17.3215H2.67855V8.83939H17.3214V17.3215ZM2.67855 7.32153V4.28582H5.5357V5.35725C5.5357 5.45546 5.61605 5.53582 5.71427 5.53582H6.96427C7.06248 5.53582 7.14284 5.45546 7.14284 5.35725V4.28582H12.8571V5.35725C12.8571 5.45546 12.9375 5.53582 13.0357 5.53582H14.2857C14.3839 5.53582 14.4643 5.45546 14.4643 5.35725V4.28582H17.3214V7.32153H2.67855Z" fill="black"/>
</svg>
