<svg width="22" height="22" viewBox="0 0 22 22" fill="none" xmlns="http://www.w3.org/2000/svg">
<path d="M7.26784 2.94632H7.07141C7.17945 2.94632 7.26784 2.85793 7.26784 2.7499V2.94632H14.7321V2.7499C14.7321 2.85793 14.8205 2.94632 14.9286 2.94632H14.7321V4.71418H16.5V2.7499C16.5 1.88315 15.7953 1.17847 14.9286 1.17847H7.07141C6.20467 1.17847 5.49998 1.88315 5.49998 2.7499V4.71418H7.26784V2.94632ZM19.6428 4.71418H2.35713C1.92253 4.71418 1.57141 5.0653 1.57141 5.4999V6.28561C1.57141 6.39365 1.6598 6.48204 1.76784 6.48204H3.25088L3.85735 19.3236C3.89663 20.1608 4.58905 20.8213 5.42632 20.8213H16.5736C17.4134 20.8213 18.1033 20.1633 18.1426 19.3236L18.7491 6.48204H20.2321C20.3402 6.48204 20.4286 6.39365 20.4286 6.28561V5.4999C20.4286 5.0653 20.0774 4.71418 19.6428 4.71418ZM16.3846 19.0535H5.61539L5.02119 6.48204H16.9788L16.3846 19.0535Z" fill="black"/>
</svg>
