<svg width="22" height="22" viewBox="0 0 22 22" fill="none" xmlns="http://www.w3.org/2000/svg">
<path d="M4.75617 16.8928C4.80527 16.8928 4.85438 16.8878 4.90349 16.8805L9.0334 16.1561C9.08251 16.1463 9.12916 16.1242 9.16353 16.0874L19.5718 5.67914C19.5946 5.65642 19.6126 5.62944 19.6249 5.59974C19.6373 5.57003 19.6436 5.53819 19.6436 5.50603C19.6436 5.47388 19.6373 5.44203 19.6249 5.41233C19.6126 5.38263 19.5946 5.35565 19.5718 5.33293L15.491 1.24967C15.4443 1.20302 15.383 1.17847 15.3167 1.17847C15.2504 1.17847 15.189 1.20302 15.1423 1.24967L4.73407 11.6579C4.69724 11.6948 4.67514 11.739 4.66532 11.7881L3.94099 15.918C3.9171 16.0495 3.92564 16.1849 3.96585 16.3124C4.00607 16.4399 4.07676 16.5556 4.17179 16.6497C4.33384 16.8068 4.53764 16.8928 4.75617 16.8928ZM6.41108 12.6106L15.3167 3.70748L17.1164 5.50726L8.21085 14.4104L6.02804 14.7959L6.41108 12.6106ZM20.0359 18.9553H1.96443C1.52983 18.9553 1.17871 19.3064 1.17871 19.741V20.6249C1.17871 20.7329 1.2671 20.8213 1.37514 20.8213H20.6251C20.7332 20.8213 20.8216 20.7329 20.8216 20.6249V19.741C20.8216 19.3064 20.4705 18.9553 20.0359 18.9553Z" fill="black"/>
</svg>
