<svg width="28" height="28" viewBox="0 0 28 28" fill="none" xmlns="http://www.w3.org/2000/svg">
<path d="M14.125 19.0313C14.125 19.1688 14.2313 19.2813 14.3594 19.2813H20.1406C20.2688 19.2813 20.375 19.1688 20.375 19.0313V17.5313C20.375 17.3938 20.2688 17.2813 20.1406 17.2813H14.3594C14.2313 17.2813 14.125 17.3938 14.125 17.5313V19.0313ZM8.03438 19.2219L14.0344 14.1906C14.1531 14.0906 14.1531 13.9063 14.0344 13.8063L8.03438 8.77813C7.99816 8.74732 7.95386 8.72756 7.90674 8.72119C7.85962 8.71482 7.81166 8.7221 7.76856 8.74217C7.72546 8.76224 7.68902 8.79426 7.66357 8.83442C7.63813 8.87458 7.62474 8.92121 7.625 8.96875V10.9281C7.625 11.0031 7.65625 11.0719 7.71563 11.1188L11.1469 14L7.71563 16.8813C7.68769 16.9046 7.66514 16.9338 7.6495 16.9667C7.63386 16.9996 7.6255 17.0355 7.625 17.0719V19.0313C7.625 19.2438 7.87188 19.3594 8.03438 19.2219ZM25.5 1.5H2.5C1.94688 1.5 1.5 1.94688 1.5 2.5V25.5C1.5 26.0531 1.94688 26.5 2.5 26.5H25.5C26.0531 26.5 26.5 26.0531 26.5 25.5V2.5C26.5 1.94688 26.0531 1.5 25.5 1.5ZM24.25 24.25H3.75V3.75H24.25V24.25Z" fill="#1890FF"/>
</svg>
