<svg width="16" height="17" viewBox="0 0 16 17" fill="none" xmlns="http://www.w3.org/2000/svg">
<path d="M13.7163 7.44807H12.5021V3.44807C12.5021 2.18557 11.4788 1.16235 10.2163 1.16235H5.78777C4.52527 1.16235 3.50205 2.18557 3.50205 3.44807V7.44807H2.28777C1.9717 7.44807 1.71634 7.70343 1.71634 8.0195V14.8766C1.71634 15.1927 1.9717 15.4481 2.28777 15.4481H13.7163C14.0324 15.4481 14.2878 15.1927 14.2878 14.8766V8.0195C14.2878 7.70343 14.0324 7.44807 13.7163 7.44807ZM4.78777 3.44807C4.78777 2.89628 5.23598 2.44807 5.78777 2.44807H10.2163C10.7681 2.44807 11.2163 2.89628 11.2163 3.44807V7.44807H4.78777V3.44807ZM13.0021 14.1624H3.00205V8.73378H13.0021V14.1624ZM7.50205 11.6802V12.6266C7.50205 12.7052 7.56634 12.7695 7.64491 12.7695H8.3592C8.43777 12.7695 8.50205 12.7052 8.50205 12.6266V11.6802C8.64946 11.5744 8.75948 11.4245 8.81629 11.2522C8.87309 11.0798 8.87375 10.8939 8.81816 10.7212C8.76257 10.5484 8.65361 10.3978 8.50695 10.2909C8.3603 10.184 8.18352 10.1265 8.00205 10.1265C7.82059 10.1265 7.64381 10.184 7.49716 10.2909C7.3505 10.3978 7.24154 10.5484 7.18595 10.7212C7.13036 10.8939 7.13102 11.0798 7.18782 11.2522C7.24463 11.4245 7.35465 11.5744 7.50205 11.6802Z" fill="#1890FF"/>
</svg>
