<svg width="14" height="15" viewBox="0 0 14 15" fill="none" xmlns="http://www.w3.org/2000/svg">
<path d="M13.189 11.7938C12.8521 10.9959 12.3633 10.2712 11.7497 9.65992C11.138 9.0469 10.4133 8.55814 9.61577 8.22064C9.60863 8.21706 9.60149 8.21528 9.59434 8.21171C10.7068 7.40814 11.4301 6.09921 11.4301 4.62242C11.4301 2.17599 9.44791 0.193848 7.00149 0.193848C4.55506 0.193848 2.57291 2.17599 2.57291 4.62242C2.57291 6.09921 3.29613 7.40813 4.40863 8.21349C4.40148 8.21706 4.39434 8.21885 4.3872 8.22242C3.5872 8.55992 2.86934 9.04385 2.25327 9.66171C1.64025 10.2734 1.15149 10.9981 0.813985 11.7956C0.482418 12.5764 0.303596 13.4136 0.2872 14.2617C0.286723 14.2808 0.290066 14.2997 0.297032 14.3175C0.303997 14.3352 0.314444 14.3514 0.327758 14.365C0.341071 14.3787 0.356981 14.3895 0.37455 14.3969C0.392119 14.4043 0.410992 14.4081 0.430057 14.4081H1.50149C1.58006 14.4081 1.64256 14.3456 1.64434 14.2689C1.68006 12.8903 2.23363 11.5992 3.2122 10.6206C4.2247 9.60814 5.56934 9.05099 7.00149 9.05099C8.43363 9.05099 9.77827 9.60814 10.7908 10.6206C11.7693 11.5992 12.3229 12.8903 12.3586 14.2689C12.3604 14.3474 12.4229 14.4081 12.5015 14.4081H13.5729C13.592 14.4081 13.6109 14.4043 13.6284 14.3969C13.646 14.3895 13.6619 14.3787 13.6752 14.365C13.6885 14.3514 13.699 14.3352 13.7059 14.3175C13.7129 14.2997 13.7162 14.2808 13.7158 14.2617C13.6979 13.4081 13.5211 12.5778 13.189 11.7938ZM7.00149 7.69385C6.18184 7.69385 5.41041 7.37421 4.83006 6.79385C4.2497 6.21349 3.93006 5.44206 3.93006 4.62242C3.93006 3.80278 4.2497 3.03135 4.83006 2.45099C5.41041 1.87063 6.18184 1.55099 7.00149 1.55099C7.82113 1.55099 8.59256 1.87063 9.17291 2.45099C9.75327 3.03135 10.0729 3.80278 10.0729 4.62242C10.0729 5.44206 9.75327 6.21349 9.17291 6.79385C8.59256 7.37421 7.82113 7.69385 7.00149 7.69385Z" fill="#1890FF"/>
</svg>
