<svg width="23" height="23" viewBox="0 0 23 23" fill="none" xmlns="http://www.w3.org/2000/svg">
<g clip-path="url(#clip0_502_1931)">
<path d="M16.2232 10.6787H12.3214V6.77689C12.3214 6.66394 12.229 6.57153 12.1161 6.57153H10.8839C10.771 6.57153 10.6786 6.66394 10.6786 6.77689V10.6787H6.77677C6.66382 10.6787 6.57141 10.7711 6.57141 10.884V12.1162C6.57141 12.2291 6.66382 12.3215 6.77677 12.3215H10.6786V16.2233C10.6786 16.3363 10.771 16.4287 10.8839 16.4287H12.1161C12.229 16.4287 12.3214 16.3363 12.3214 16.2233V12.3215H16.2232C16.3361 12.3215 16.4286 12.2291 16.4286 12.1162V10.884C16.4286 10.7711 16.3361 10.6787 16.2232 10.6787Z" fill="white"/>
<path d="M11.5 0C5.14933 0 0 5.14933 0 11.5C0 17.8507 5.14933 23 11.5 23C17.8507 23 23 17.8507 23 11.5C23 5.14933 17.8507 0 11.5 0ZM11.5 21.0491C6.22746 21.0491 1.95089 16.7725 1.95089 11.5C1.95089 6.22746 6.22746 1.95089 11.5 1.95089C16.7725 1.95089 21.0491 6.22746 21.0491 11.5C21.0491 16.7725 16.7725 21.0491 11.5 21.0491Z" fill="white"/>
</g>
<defs>
<clipPath id="clip0_502_1931">
<rect width="23" height="23" fill="white"/>
</clipPath>
</defs>
</svg>
