<svg width="16" height="18" viewBox="0 0 16 18" fill="none" xmlns="http://www.w3.org/2000/svg">
<path d="M15.3766 14.8327C14.9784 13.8661 14.4005 12.988 13.6751 12.2475C12.9519 11.5048 12.0953 10.9127 11.1524 10.5038C11.144 10.4994 11.1355 10.4973 11.1271 10.493C12.4423 9.51942 13.2972 7.93365 13.2972 6.14452C13.2972 3.18067 10.954 0.779297 8.06189 0.779297C5.16979 0.779297 2.82655 3.18067 2.82655 6.14452C2.82655 7.93365 3.68152 9.51942 4.99668 10.4951C4.98824 10.4994 4.9798 10.5016 4.97135 10.5059C4.02561 10.9148 3.17698 11.5011 2.44868 12.2496C1.72398 12.9907 1.14619 13.8687 0.747194 14.8349C0.355224 15.7808 0.143826 16.795 0.124442 17.8225C0.123879 17.8456 0.127831 17.8686 0.136065 17.8901C0.1443 17.9116 0.15665 17.9312 0.172389 17.9477C0.188127 17.9643 0.206936 17.9774 0.227706 17.9864C0.248475 17.9953 0.270787 17.9999 0.293324 17.9999H1.55994C1.65282 17.9999 1.72671 17.9242 1.72882 17.8312C1.77104 16.1611 2.42546 14.5969 3.5823 13.4114C4.77925 12.1847 6.36885 11.5097 8.06189 11.5097C9.75493 11.5097 11.3445 12.1847 12.5415 13.4114C13.6983 14.5969 14.3527 16.1611 14.395 17.8312C14.3971 17.9264 14.471 17.9999 14.5638 17.9999H15.8305C15.853 17.9999 15.8753 17.9953 15.8961 17.9864C15.9168 17.9774 15.9357 17.9643 15.9514 17.9477C15.9671 17.9312 15.9795 17.9116 15.9877 17.8901C15.9959 17.8686 15.9999 17.8456 15.9993 17.8225C15.9782 16.7884 15.7692 15.7825 15.3766 14.8327ZM8.06189 9.86557C7.09293 9.86557 6.18097 9.47832 5.49489 8.77521C4.8088 8.07211 4.43093 7.13752 4.43093 6.14452C4.43093 5.15152 4.8088 4.21694 5.49489 3.51383C6.18097 2.81073 7.09293 2.42348 8.06189 2.42348C9.03085 2.42348 9.94281 2.81073 10.6289 3.51383C11.315 4.21694 11.6929 5.15152 11.6929 6.14452C11.6929 7.13752 11.315 8.07211 10.6289 8.77521C9.94281 9.47832 9.03085 9.86557 8.06189 9.86557Z" fill="black"/>
</svg>
