<svg width="11" height="11" viewBox="0 0 11 11" fill="none" xmlns="http://www.w3.org/2000/svg">
<path d="M10.5382 9.81024L7.10697 6.37897C7.63943 5.6906 7.92747 4.84897 7.92747 3.96373C7.92747 2.90409 7.51392 1.91052 6.76609 1.16137C6.01827 0.412228 5.02205 0 3.96373 0C2.90542 0 1.9092 0.413549 1.16137 1.16137C0.412228 1.9092 0 2.90409 0 3.96373C0 5.02205 0.413549 6.01827 1.16137 6.76609C1.9092 7.51524 2.90409 7.92747 3.96373 7.92747C4.84897 7.92747 5.68928 7.63943 6.37765 7.10829L9.80892 10.5382C9.81898 10.5483 9.83092 10.5563 9.84407 10.5617C9.85722 10.5672 9.87132 10.57 9.88555 10.57C9.89978 10.57 9.91388 10.5672 9.92702 10.5617C9.94017 10.5563 9.95212 10.5483 9.96218 10.5382L10.5382 9.9635C10.5483 9.95344 10.5563 9.94149 10.5617 9.92835C10.5672 9.9152 10.57 9.9011 10.57 9.88687C10.57 9.87264 10.5672 9.85854 10.5617 9.8454C10.5563 9.83225 10.5483 9.8203 10.5382 9.81024ZM6.05658 6.05658C5.49638 6.61547 4.75384 6.92332 3.96373 6.92332C3.17363 6.92332 2.43109 6.61547 1.87088 6.05658C1.312 5.49638 1.00415 4.75384 1.00415 3.96373C1.00415 3.17363 1.312 2.42977 1.87088 1.87088C2.43109 1.312 3.17363 1.00415 3.96373 1.00415C4.75384 1.00415 5.4977 1.31067 6.05658 1.87088C6.61547 2.43109 6.92332 3.17363 6.92332 3.96373C6.92332 4.75384 6.61547 5.4977 6.05658 6.05658Z" fill="#22B0DD"/>
</svg>
